<?xml version="1.0" encoding="utf-8"?>
<!-- Generator: Adobe Illustrator 24.2.3, SVG Export Plug-In . SVG Version: 6.00 Build 0)  -->
<svg version="1.1" id="Layer_1" xmlns="http://www.w3.org/2000/svg" xmlns:xlink="http://www.w3.org/1999/xlink" x="0px" y="0px"
	 viewBox="0 0 1366 768" style="enable-background:new 0 0 1366 768;" xml:space="preserve">
<style type="text/css">
	.st0{stroke:#000000;stroke-width:0.5;stroke-miterlimit:10;}
</style>
<g>
	<g>
		<path class="st0" d="M585.6,345h6.1l18.8,51.1h-7.7l-14.2-41.2l-14.2,41.2h-7.7L585.6,345z M575.5,378.1h26.9v6.8h-26.9V378.1z"/>
		<path class="st0" d="M629.6,396.1h-7.2v-43.3l-7.3,4.5v-7.4l7.3-4.9h7.2V396.1z"/>
		<path class="st0" d="M653.5,396.1h-7.2v-43.3l-7.3,4.5v-7.4l7.3-4.9h7.2V396.1z"/>
		<path class="st0" d="M661.6,359.6h7.3l11.2,31.7l-4,7.8L661.6,359.6z M693.9,359.6l-15.5,45c-0.6,1.7-1.3,3-2.2,4s-2,1.7-3.4,2.1
			s-3,0.6-4.9,0.6h-1.4v-6.9h1.4c1.3,0,2.4-0.3,3.2-0.8s1.5-1.5,2.1-2.8l13.5-41.2H693.9z"/>
		<path class="st0" d="M582.9,431.4h7.2v51.2h-7.2V431.4z M586,454.1h17.4c1.4,0,2.6-0.3,3.6-1s1.9-1.6,2.4-2.8s0.9-2.6,0.9-4.2
			s-0.3-3-0.9-4.2s-1.4-2.1-2.4-2.8s-2.3-1-3.6-1H586v-6.8h17.2c3,0,5.5,0.6,7.8,1.8s4,2.9,5.2,5.2s1.8,4.8,1.8,7.8
			s-0.6,5.5-1.9,7.8s-3,4-5.2,5.2s-4.8,1.8-7.8,1.8H586V454.1z M599.9,459.3l7.1-1.6l13.1,24.8h-8.5L599.9,459.3z"/>
		<path class="st0" d="M634,481.1c-2.4-1.3-4.2-3.1-5.5-5.6s-1.9-5.4-1.9-8.9v-4.1c0-3.6,0.6-6.7,1.8-9.2s3-4.5,5.3-5.8s5.1-2,8.3-2
			c3,0,5.6,0.8,7.8,2.3s3.8,3.7,4.9,6.6s1.7,6.3,1.7,10.4v2.4h-24.6v-5.8h17.8c-0.2-3-1-5.3-2.3-6.9s-3.1-2.5-5.3-2.5
			c-2.7,0-4.8,0.9-6.3,2.7s-2.2,4.3-2.2,7.6v4.6c0,3,0.8,5.3,2.4,7s3.9,2.4,6.8,2.4c1.5,0,2.9-0.3,4.3-0.9s2.7-1.4,3.8-2.5l4.7,4.7
			c-1.8,1.7-3.8,3.1-6.1,4s-4.5,1.4-6.8,1.4C639.2,483,636.4,482.4,634,481.1z"/>
		<path class="st0" d="M663.5,446h18.2v6.1h-18.2V446z M667.3,441.1c0-3.2,0.7-5.7,2.2-7.3s3.8-2.4,6.9-2.4h5.3v6.8h-5.1
			c-0.7,0-1.2,0.3-1.5,0.8s-0.5,1.2-0.5,2v41.5h-7.2V441.1z"/>
	</g>
	<g>
		<path d="M717.5,308h-353c-18.5,0-33.5,15-33.5,33.5v143c0,18.5,15,33.5,33.5,33.5h39.3c0.6,4.3,1.1,10.1,3.6,12.6
			c2.5,2.5,6.8,2.9,8.2,3h55.6c0.2,0,0.5,0,0.7-0.1c0.5-0.1,5-1.1,8.4-5.5c2.2-2.8,2.4-6.4,2.5-10h234.8c18.5,0,33.5-15,33.5-33.5
			v-143C751,323,736,308,717.5,308z M407.1,505.9c-5.9-8.1-13.7-48.1-14.9-58.3c-0.9-7.8-0.5-22.4-11-65.1c-1-3.5-0.3-7.8,3.6-8.9
			c4.2-1.2,6.2,2.2,7.1,5.2l12.7,45.4c-2.1,1.1-4,2.2-5.4,3.5c-1.5,1.3-1.7,3.6-0.4,5.1c0.7,0.8,1.7,1.2,2.7,1.2
			c0.8,0,1.7-0.3,2.3-0.9c3-2.6,10.6-5.4,12.3-5.5c2,0,3.6-1.6,3.6-3.6c0-2-1.6-3.6-3.6-3.6c0,0,0,0,0,0c-1.1,0-2.8,0.4-4.9,1
			L391.7,352c-0.3-2-0.8-6.4,4.9-8.2c2.4-0.7,4.7-0.2,7.5,6.6l25,67.4c-2,0.4-3.8,0.9-4.9,1.5c-1.7,0.9-2.4,3.1-1.4,4.9
			c0.6,1.2,1.9,1.9,3.2,1.9c0.6,0,1.2-0.1,1.7-0.4c1.8-1,10.2-2.1,13.4-1.4c1.9,0.4,3.8-0.8,4.3-2.7c0.4-1.9-0.8-3.8-2.7-4.3
			c-1.1-0.2-2.7-0.4-4.3-0.3l24.7-77.3c2.6-8,4.8-8.5,7.2-8.2c5,0.6,5.8,2.7,5.4,6.1c-0.4,2.2-10.2,48.7-17,80.5
			c-2.6-0.1-5,0.1-6.5,0.5c-1.9,0.6-3,2.6-2.4,4.5s2.6,3,4.5,2.4c1.9-0.6,10.4,0,13.4,1.3c0.5,0.2,1,0.3,1.5,0.3
			c1.4,0,2.7-0.8,3.3-2.1c0.8-1.8,0-3.9-1.8-4.7c-1.2-0.5-2.9-1-4.7-1.3c3.6-17.1,9.9-46.6,13.7-64.8c1.1-2.8,4.2-4.9,7.9-4.5
			c5.1,0.6,5.2,5.8,4.9,8c-10.5,86.6-9.7,88.8-9.3,89.8c0.8,2.3,2.2,3.9,3.6,5c0,0,0,0-0.1,0.1c-3.9,0-25.7,0.7-35.9,20.6
			c-0.9,1.8-0.2,3.9,1.5,4.8c0.5,0.3,1.1,0.4,1.6,0.4c1.3,0,2.5-0.7,3.2-1.9c8.4-16.4,27.1-16.7,29.6-16.7
			c1.8,0.3,4.5-0.8,26.7-17.5c0.4-0.3,0.8-0.7,1-1.2c1.9-3.5,7.2-10,15.2-12.2c5.3-1.5,10.7-0.8,16.3,2.2
			c-1.1,1.3-40.7,41.9-49.1,56c-3.7,6.2-11.6,12.1-15.2,15.1c-2.9,2.4-4.7,12.8-5.2,16.2h-64C411.3,516.1,408.1,507.4,407.1,505.9z
			 M474.6,523.6c-1.7,1.7-3.2,2.6-3.9,2.8l-55,0c-1.3-0.1-2.9-0.5-3.2-0.7c-0.2-0.2,0.1-3.6-0.6-7.7h64
			C475.9,520.5,475.6,522.6,474.6,523.6z M744,484.5c0,14.6-11.9,26.5-26.5,26.5H483.3c0.2-0.9,0.5-1.7,0.9-2.4
			c0.3-0.3,14-10.9,18.4-18.2c8-13.4,50.8-58.4,51.3-59.8c0.4-1-1.2-4-3.7-5.5c-7.5-4.4-15.4-5.6-22.9-3.4c-9.3,2.6-16,9.6-19.2,15
			c-4.6,3.4-10.6,7.6-15.5,11.1c-1.3-0.7-2.3-1.4-2.9-2.7c0-6,5.8-56,9.5-86.7c0.6-3.8,0-14.1-10.8-16.1c-2.4-0.4-4.7-0.2-6.8,0.5
			c0.6-2.7,0.9-4.4,0.9-4.6c0.8-7.9-3.5-13.1-11.7-14.1c-10.2-1.2-13.4,8.8-14.8,13.1l-22.8,71.2l-22.5-60.8
			c-1.4-3.5-5.4-13.6-15.4-11c-11.9,3.1-11.4,12.8-10.8,16.6c0,0.1,0,0.2,0.1,0.4l3.5,12.6c-1.8-0.3-3.7-0.2-5.6,0.4
			c-7.3,2.1-10.8,9.6-8.5,17.7c10.3,41.9,9.7,56,10.8,63.4c2.1,15.3,8.6,48,14.3,60.6c0.5,1.1,1,1.9,1.5,2.6h-36.3
			c-14.6,0-26.5-11.9-26.5-26.5v-143c0-14.6,11.9-26.5,26.5-26.5h353c14.6,0,26.5,11.9,26.5,26.5V484.5z"/>
	</g>
</g>
</svg>
