<?xml version="1.0" encoding="utf-8"?>
<!-- Generator: Adobe Illustrator 24.2.3, SVG Export Plug-In . SVG Version: 6.00 Build 0)  -->
<svg version="1.1" id="Layer_1" xmlns="http://www.w3.org/2000/svg" xmlns:xlink="http://www.w3.org/1999/xlink" x="0px" y="0px"
	 viewBox="0 0 420 225.6" style="enable-background:new 0 0 420 225.6;" xml:space="preserve">
<g>
	<path d="M271.8,88.1h7.7L260.7,37h-6.1l-18.8,51.1h7.7l3.9-11.2H268L271.8,88.1z M249.7,70.1l8-23.2l8,23.2H249.7z"/>
	<polygon points="298.6,88.1 298.6,37 291.4,37 284.1,41.9 284.1,49.3 291.4,44.8 291.4,88.1 	"/>
	<polygon points="315.4,88.1 322.5,88.1 322.5,37 315.4,37 308.1,41.9 308.1,49.3 315.4,44.8 	"/>
	<path d="M347.1,77.6l-9.2-26h-7.3l13.2,35.9l-1.7,5.3c-0.6,1.3-1.3,2.2-2.1,2.8s-1.8,0.8-3.2,0.8h-1.4v6.9h1.4
		c1.9,0,3.6-0.2,4.9-0.6s2.5-1.1,3.4-2.1s1.7-2.3,2.2-4l15.5-45h-7.3L347.1,77.6z"/>
	<path d="M279.9,151.1c2.2-1.2,4-2.9,5.2-5.2s1.9-4.8,1.9-7.8s-0.6-5.5-1.8-7.8s-3-4-5.2-5.2s-4.8-1.8-7.8-1.8H259h-4h-3.1v51.2h7.2
		v-21.6h10.7l10.9,21.6h8.5l-11.8-22.4C278.2,151.9,279.1,151.5,279.9,151.1z M272.4,146.1H259v-15.9h13.4c1.4,0,2.6,0.3,3.6,1
		s1.9,1.6,2.4,2.8s0.9,2.6,0.9,4.2s-0.3,3-0.9,4.2s-1.4,2.1-2.4,2.8S273.8,146.1,272.4,146.1z"/>
	<path d="M318.8,139.8c-2.2-1.5-4.8-2.3-7.8-2.3c-3.2,0-6,0.7-8.3,2s-4,3.3-5.3,5.8s-1.8,5.6-1.8,9.2v4.1c0,3.5,0.6,6.4,1.9,8.9
		s3.1,4.3,5.5,5.6s5.3,1.9,8.6,1.9c2.3,0,4.5-0.5,6.8-1.4s4.3-2.3,6.1-4l-4.7-4.7c-1.1,1.1-2.4,1.9-3.8,2.5s-2.9,0.9-4.3,0.9
		c-2.9,0-5.2-0.8-6.8-2.4c-1.5-1.6-2.3-3.8-2.4-6.6h23v-2.4c0-4-0.6-7.5-1.7-10.4S320.9,141.3,318.8,139.8z M302.5,153.4
		c0.1-2.9,0.8-5.1,2.2-6.8c1.5-1.8,3.6-2.7,6.3-2.7c2.2,0,4,0.8,5.3,2.5s2.1,4,2.3,6.9H302.5z"/>
	<path d="M338.6,125.8c-1.5,1.6-2.2,4-2.2,7.3v5h-3.9v6.1h3.9v30.4h7.2v-30.4h7.2V138h-7.2v-5c0-0.8,0.2-1.5,0.5-2s0.9-0.8,1.5-0.8
		h5.1v-6.8h-5.3C342.3,123.4,340.1,124.2,338.6,125.8z"/>
	<path d="M386.5,0h-353C15,0,0,15,0,33.5v143C0,195,15,210,33.5,210h39.3c0.6,4.3,1.1,10.1,3.6,12.6c2.5,2.5,6.8,2.9,8.2,3h55.6
		c0.2,0,0.5,0,0.7-0.1c0.5-0.1,5-1.1,8.4-5.5c2.2-2.8,2.4-6.4,2.5-10h234.8c18.5,0,33.5-15,33.5-33.5v-143C420,15,405,0,386.5,0z
		 M150.2,193.8c-2.9,2.4-4.7,12.8-5.2,16.2h0c-0.1,2.5-0.4,4.6-1.4,5.6c-1.7,1.7-3.2,2.6-3.9,2.8l-55,0c-1.3-0.1-2.9-0.5-3.2-0.7
		c-0.2-0.2,0.1-3.6-0.6-7.7c-0.7-1.9-3.9-10.6-4.9-12.1c-5.9-8.1-13.7-48.1-14.9-58.3c-0.9-7.8-0.5-22.4-11-65.1
		c-1-3.5-0.3-7.8,3.6-8.9c4.2-1.2,6.2,2.2,7.1,5.2l12.7,45.4c-2.1,1.1-4,2.2-5.4,3.5c-1.5,1.3-1.7,3.6-0.4,5.1
		c0.7,0.8,1.7,1.2,2.7,1.2c0.8,0,1.7-0.3,2.3-0.9c3-2.6,10.6-5.4,12.3-5.5c2,0,3.6-1.6,3.6-3.6c0-2-1.6-3.6-3.6-3.6c0,0,0,0,0,0
		c-1.1,0-2.8,0.4-4.9,1L60.7,44c-0.3-2-0.8-6.4,4.9-8.2c2.4-0.7,4.7-0.2,7.5,6.6l25,67.4c-2,0.4-3.8,0.9-4.9,1.5
		c-1.7,0.9-2.4,3.1-1.4,4.9c0.6,1.2,1.9,1.9,3.2,1.9c0.6,0,1.2-0.1,1.7-0.4c1.8-1,10.2-2.1,13.4-1.4c1.9,0.4,3.8-0.8,4.3-2.7
		c0.4-1.9-0.8-3.8-2.7-4.3c-1.1-0.2-2.7-0.4-4.3-0.3l24.7-77.3c2.6-8,4.8-8.5,7.2-8.2c5,0.6,5.8,2.7,5.4,6.1
		c-0.4,2.2-10.2,48.7-17,80.5c-2.6-0.1-5,0.1-6.5,0.5c-1.9,0.6-3,2.6-2.4,4.5s2.6,3,4.5,2.4c1.9-0.6,10.4,0,13.4,1.3
		c0.5,0.2,1,0.3,1.5,0.3c1.4,0,2.7-0.8,3.3-2.1c0.8-1.8,0-3.9-1.8-4.7c-1.2-0.5-2.9-1-4.7-1.3c3.6-17.1,9.9-46.6,13.7-64.8
		c1.1-2.8,4.2-4.9,7.9-4.5c5.1,0.6,5.2,5.8,4.9,8c-10.5,86.6-9.7,88.8-9.3,89.8c0.8,2.3,2.2,3.9,3.6,5c0,0,0,0-0.1,0.1
		c-3.9,0-25.7,0.7-35.9,20.6c-0.9,1.8-0.2,3.9,1.5,4.8c0.5,0.3,1.1,0.4,1.6,0.4c1.3,0,2.5-0.7,3.2-1.9c8.4-16.4,27.1-16.7,29.6-16.7
		c1.8,0.3,4.5-0.8,26.7-17.5c0.4-0.3,0.8-0.7,1-1.2c1.9-3.5,7.2-10,15.2-12.2c5.3-1.5,10.7-0.8,16.3,2.2c-1.1,1.3-40.7,41.9-49.1,56
		C161.8,184.9,153.9,190.8,150.2,193.8z M413,176.5c0,14.6-11.9,26.5-26.5,26.5H152.3c0.2-0.9,0.5-1.7,0.9-2.4
		c0.3-0.3,14-10.9,18.4-18.2c8-13.4,50.8-58.4,51.3-59.8c0.4-1-1.2-4-3.7-5.5c-7.5-4.4-15.4-5.6-22.9-3.4c-9.3,2.6-16,9.6-19.2,15
		c-4.6,3.4-10.6,7.6-15.5,11.1c-1.3-0.7-2.3-1.4-2.9-2.7c0-6,5.8-56,9.5-86.7c0.6-3.8,0-14.1-10.8-16.1c-2.4-0.4-4.7-0.2-6.8,0.5
		c0.6-2.7,0.9-4.4,0.9-4.6c0.8-7.9-3.5-13.1-11.7-14.1c-10.2-1.2-13.4,8.8-14.8,13.1l-22.8,71.2L79.8,39.7
		c-1.4-3.5-5.4-13.6-15.4-11C52.6,31.8,53,41.6,53.7,45.3c0,0.1,0,0.2,0.1,0.4l3.5,12.6c-1.8-0.3-3.7-0.2-5.6,0.4
		c-7.3,2.1-10.8,9.6-8.5,17.7c10.3,41.9,9.7,56,10.8,63.4c2.1,15.3,8.6,48,14.3,60.6c0.5,1.1,1,1.9,1.5,2.6H33.5
		C18.9,203,7,191.1,7,176.5v-143C7,18.9,18.9,7,33.5,7h353C401.1,7,413,18.9,413,33.5V176.5z"/>
</g>
</svg>
